<svg xmlns="http://www.w3.org/2000/svg" version="1.1" xmlns:xlink="http://www.w3.org/1999/xlink" viewBox="0 0 12.710299946709643 5.453579831304991"><g transform="matrix(1,0,0,1,0.6813373493980555,1.7516586656524953)"><g clip-path="url(#SvgjsClipPath1001)"><g clip-path="url(#SvgjsClipPath100071217def-80c1-4035-880c-e3f34131b8bf)"><path d=" M 10.71471165091338 -1.0703213162544387 L 10.11684864868381 -1.0703213162544387 L 9.748650495998596 -0.7021231635692249 L 9.440205262017509 -0.3936779295881394 L 9.439871446829217 -0.3936779295881394 L 9.33104769544628 -0.2845203630169115 C 9.373776039547558 -0.27150157067355396 9.404820852058641 -0.23110993289031645 9.404820852058641 -0.18404199134125432 C 9.404820852058641 -0.12762722452003872 9.358420540886161 -0.08055928297097703 9.30100432850007 -0.08055928297097703 C 9.25360257176272 -0.08055928297097703 9.213878564356063 -0.11227172585864287 9.201527402389289 -0.15500006995991855 L 9.093037466194643 -0.04651013376527291 L 8.84300989016452 0.20351744226484958 L 8.72016590087335 0.32636143155601793 L 8.758888462715133 0.32636143155601793 L 8.858031573637625 0.4268398032316747 L 8.866043138156613 0.434851367750664 L 8.849018563553763 0.434851367750664 L 8.612343595055288 0.43418373737408134 L 8.612009779866998 0.43418373737408134 L 8.465464912207153 0.5810624202222174 L 7.676659622275004 1.3698677101543661 L 7.676325807086712 1.3698677101543661 L 7.529447124238576 1.5170802081907935 L 7.168259090507478 1.8782682419218912 L 7.167925275319186 1.8782682419218912 L 6.820757479496319 2.2254360377447586 L 6.820757479496319 2.22576985293305 L 6.443212501538951 2.603314830890418 L 6.837114423722588 2.2484692857368525 C 6.951613033306477 2.4076991305517645 7.13888335393785 2.511515654110332 7.350188368126191 2.511515654110332 L 8.49517446396507 2.511515654110332 L 8.49517446396507 2.645375544615111 L 8.21343444504728 2.645375544615111 C 8.15535060228461 2.645375544615111 8.108282660735547 2.6924434861641724 8.108282660735547 2.750527328926845 L 8.108282660735547 2.9154320319427063 C 8.108282660735547 2.9735158747053787 8.15535060228461 3.0205838162544407 8.21343444504728 3.0205838162544407 L 9.869825409348307 3.0205838162544407 C 9.927909252110979 3.0205838162544407 9.975311008848331 2.9735158747053787 9.975311008848331 2.9154320319427063 L 9.975311008848331 2.750527328926845 C 9.975311008848331 2.6924434861641724 9.927909252110979 2.645375544615111 9.869825409348307 2.645375544615111 L 9.569725555074502 2.645375544615111 L 9.569725555074502 2.511515654110332 L 10.71471165091338 2.511515654110332 C 11.064216153054286 2.511515654110332 11.34762524791353 2.2281065592510876 11.34762524791353 1.8786020571101827 L 11.34762524791353 -0.43740771925429023 C 11.34762524791353 -0.7869122213951949 11.064216153054286 -1.0703213162544387 10.71471165091338 -1.0703213162544387 Z M 9.032616917113932 2.45042747465304 C 8.945491152969923 2.45042747465304 8.875056148240477 2.379658654735302 8.875056148240477 2.292866705779585 C 8.875056148240477 2.206074756823868 8.945491152969925 2.13530593690613 9.032616917113932 2.13530593690613 C 9.119408866069648 2.13530593690613 9.189843870799095 2.206074756823868 9.189843870799095 2.292866705779585 C 9.189843870799095 2.379658654735302 9.119408866069648 2.45042747465304 9.032616917113932 2.45042747465304 Z M 10.979760910416609 1.6849892479012776 C 10.979760910416609 1.8328693763142874 10.859587442631769 1.9527090289108346 10.71170731421876 1.9527090289108346 L 7.353192704820812 1.9527090289108346 C 7.301117535447382 1.9527090289108346 7.252380517956865 1.9376873454377304 7.210987434608753 1.9113159455627233 L 7.648285331270249 1.5170802081907944 L 8.06488668625769 1.5170802081907944 L 8.447438892039425 1.1351956327856403 L 9.05398108916457 1.1351956327856403 C 9.084024456110779 1.2396797867207918 9.179829415150358 1.3171249104043539 9.293660394357664 1.3171249104043539 C 9.432861327875102 1.3171249104043539 9.545357046329244 1.2042953767619227 9.545357046329244 1.0660958888093583 C 9.545357046329244 0.9278964008567936 9.432861327875102 0.8150668672143615 9.293660394357664 0.8150668672143615 C 9.183501382221563 0.8150668672143615 9.090033129500021 0.887838578261847 9.056651610670901 0.9879831347492125 L 8.386350712582132 0.9879831347492125 L 8.00446613717698 1.3698677101543661 L 7.811520958344655 1.3698677101543661 L 8.686116751667647 0.5813962354105089 L 9.861813844829317 0.584066756916839 C 9.893526287716982 0.6872156500988249 9.987662170815106 0.7623240674643492 10.100157889269248 0.7623240674643492 C 10.238691192410103 0.7623240674643492 10.351186910864243 0.649494533821918 10.351186910864243 0.510627415492771 C 10.351186910864243 0.37209411235191503 10.238691192410103 0.2595983938977744 10.100157889269248 0.2595983938977744 C 9.987662170815106 0.2595983938977744 9.893526287716982 0.3347068112632987 9.861813844829317 0.4368542588804114 L 9.075011446026917 0.4355189981272467 L 8.967522955397143 0.3280305074974743 L 9.261280321093416 0.06331506318253832 C 9.274299113436772 0.0656517695005765 9.287651720968423 0.06665321506545019 9.30100432850007 0.06665321506545019 C 9.439537631640928 0.06665321506545019 9.552033350095067 -0.04584250338869067 9.552033350095067 -0.18404199134125476 C 9.552033350095067 -0.18871540397733222 9.552033350095067 -0.19372263180170057 9.551365719718484 -0.19839604443777747 L 9.696909141813457 -0.3295854134362264 C 9.667867220432122 -0.28852614527640674 9.650508830640977 -0.23845386703272398 9.650508830640977 -0.18404199134125532 C 9.650508830640977 -0.045842503388691114 9.76333836428341 0.06665321506544952 9.901537852235974 0.06665321506544952 C 10.014033570690115 0.06665321506544952 10.109170899353114 -0.008455202300074127 10.140883342240777 -0.11060264991718738 L 10.527107515093718 -0.11060264991718738 L 10.527107515093718 0.9048631528646989 L 9.873497376419511 0.9048631528646989 L 9.873497376419511 1.1705800427445086 C 9.771349928802397 1.2022924856321744 9.696241511436874 1.2964283687302989 9.696241511436874 1.4095917175610215 C 9.696241511436874 1.5481250207018773 9.808737229891015 1.660620739156018 9.947270533031869 1.660620739156018 C 10.085470020984435 1.660620739156018 10.198299554626868 1.5481250207018773 10.198299554626868 1.4095917175610215 C 10.198299554626868 1.2964283687302989 10.123191137261344 1.2022924856321744 10.020709874455939 1.1705800427445086 L 10.020709874455939 1.0520756509011258 L 10.527107515093718 1.0520756509011258 L 10.527107515093718 1.1705800427445086 C 10.424960067476604 1.2022924856321744 10.34985165011108 1.2964283687302989 10.34985165011108 1.4095917175610215 C 10.34985165011108 1.5481250207018773 10.462347368565222 1.660620739156018 10.600546856517784 1.660620739156018 C 10.739080159658641 1.660620739156018 10.851575878112783 1.5481250207018773 10.851575878112783 1.4095917175610215 C 10.851575878112783 1.2964283687302989 10.776467460747256 1.2022924856321744 10.674320013130144 1.1705800427445086 L 10.674320013130144 -0.25781514795361404 L 10.140883342240777 -0.25781514795361404 C 10.109170899353114 -0.36096404113560043 10.014033570690113 -0.4357386433128333 9.901537852235974 -0.4357386433128333 C 9.85714043219324 -0.4357386433128333 9.81541353365684 -0.42405511172264077 9.779361493321389 -0.40369238523687656 L 10.110506160106276 -0.7021231635692253 L 10.714711650913383 -0.7021231635692253 C 10.860588888196645 -0.7021231635692253 10.979760910416609 -0.583952586914134 10.979760910416609 -0.43740771925428923 L 10.979760910416609 1.6849892479012776 L 10.979760910416609 1.6849892479012776 Z M 9.189843870799095 1.0660958888093583 C 9.189843870799095 1.0086796764232684 9.236911812348158 0.9622793652507884 9.293660394357666 0.9622793652507884 C 9.351076606743755 0.9622793652507884 9.398144548292818 1.0086796764232675 9.398144548292818 1.0660958888093583 C 9.398144548292818 1.1235121011954479 9.351076606743755 1.169912412367927 9.293660394357666 1.169912412367927 C 9.236911812348158 1.169912412367927 9.189843870799095 1.123512101195447 9.189843870799095 1.0660958888093583 Z M 9.99667518089897 0.510627415492771 C 9.99667518089897 0.4538788334832642 10.042741676883157 0.4068108919342015 10.100157889269248 0.4068108919342015 C 10.157574101655339 0.4068108919342015 10.203974412827819 0.4538788334832631 10.203974412827819 0.510627415492771 C 10.203974412827819 0.5680436278788603 10.157574101655339 0.6151115694279221 10.100157889269248 0.6151115694279221 C 10.042741676883157 0.6151115694279221 9.99667518089897 0.5680436278788603 9.99667518089897 0.510627415492771 Z M 9.797721328677405 -0.18404199134125432 C 9.797721328677405 -0.24145820372734395 9.844121639849885 -0.2888599604646971 9.901537852235972 -0.2888599604646971 C 9.958954064622063 -0.2888599604646971 10.005354375794543 -0.24145820372734395 10.005354375794543 -0.18404199134125432 C 10.005354375794543 -0.12762722452003872 9.958954064622063 -0.08055928297097703 9.901537852235972 -0.08055928297097703 C 9.844121639849885 -0.08055928297097703 9.797721328677405 -0.12762722452003872 9.797721328677405 -0.18404199134125432 Z M 10.600546856517784 1.30510756362587 C 10.657295438527292 1.30510756362587 10.704363380076355 1.352509320363223 10.704363380076355 1.4095917175610215 C 10.704363380076355 1.4663402995705281 10.657295438527292 1.5134082411195902 10.600546856517784 1.5134082411195902 C 10.543130644131695 1.5134082411195902 10.497064148147508 1.4663402995705295 10.497064148147508 1.4095917175610215 C 10.497064148147508 1.352509320363223 10.543130644131695 1.30510756362587 10.600546856517784 1.30510756362587 Z M 10.05108705659044 1.4095917175610224 C 10.05108705659044 1.4663402995705295 10.00468674541796 1.513408241119591 9.947270533031869 1.513408241119591 C 9.88985432064578 1.513408241119591 9.843454009473302 1.4663402995705295 9.843454009473302 1.4095917175610224 C 9.843454009473302 1.352509320363223 9.88985432064578 1.3051075636258709 9.947270533031869 1.3051075636258709 C 10.00468674541796 1.3051075636258709 10.05108705659044 1.352509320363223 10.05108705659044 1.4095917175610224 Z" fill="#404040" transform="matrix(1,0,0,1,0,0)" fill-rule="nonzero"></path></g><g clip-path="url(#SvgjsClipPath100071217def-80c1-4035-880c-e3f34131b8bf)"><path d=" M 6.717274771126041 1.6849892479012776 L 6.717274771126041 1.8786020571101845 C 6.717274771126041 2.0067870894140123 6.75532970259124 2.125959111633977 6.820757479496319 2.2254360377447604 L 7.167925275319186 1.878268241921893 C 7.11685155151063 1.829865039619667 7.085139108622964 1.761099110831676 7.085139108622964 1.6849892479012785 L 6.717274771126041 1.6849892479012785 L 6.717274771126041 1.6849892479012776 Z" fill="#4e888f" transform="matrix(1,0,0,1,0,0)" fill-rule="nonzero"></path></g><g clip-path="url(#SvgjsClipPath100071217def-80c1-4035-880c-e3f34131b8bf)"><path d=" M 6.194854001450285 1.1926118451717302 C 6.05665451349772 1.1926118451717302 5.943824979855289 1.3051075636258709 5.943824979855289 1.443640866766727 C 5.943824979855289 1.5828418002841649 6.05665451349772 1.6953375187383055 6.194854001450285 1.6953375187383055 C 6.307349719904425 1.6953375187383055 6.40181941819084 1.6202291013727814 6.433198045890214 1.5170802081907944 L 7.529447124238576 1.5170802081907944 L 7.676325807086712 1.369867710154367 L 6.433198045890214 1.369867710154367 C 6.40181941819084 1.2677202625372543 6.307349719904425 1.1926118451717302 6.194854001450285 1.1926118451717302 Z M 6.194854001450285 1.5481250207018773 C 6.137437789064195 1.5481250207018773 6.091037477891716 1.5010570791528157 6.091037477891716 1.4436408667667258 C 6.091037477891716 1.3868922847572192 6.137437789064195 1.3398243432081562 6.194854001450285 1.3398243432081562 C 6.251602583459792 1.3398243432081562 6.298670525008853 1.3868922847572178 6.298670525008853 1.4436408667667258 C 6.298670525008853 1.5010570791528157 6.251602583459792 1.5481250207018773 6.194854001450285 1.5481250207018773 Z" fill="#4e888f" transform="matrix(1,0,0,1,0,0)" fill-rule="nonzero"></path></g><g clip-path="url(#SvgjsClipPath100071217def-80c1-4035-880c-e3f34131b8bf)"><path d=" M 7.820533968428518 0.7923674344105591 L 7.085139108622964 0.7923674344105591 C 7.053760480923589 0.689886171605155 6.958623152260592 0.6151115694279221 6.846127433806451 0.6151115694279221 C 6.707927945853887 0.6151115694279221 6.595098412211456 0.7276072878820627 6.595098412211456 0.8658067758346264 C 6.595098412211456 1.0043400789754826 6.707927945853887 1.1168357974296232 6.846127433806451 1.1168357974296232 C 6.958623152260592 1.1168357974296232 7.053760480923589 1.0417273800640987 7.085139108622964 0.939579932446986 L 7.880954517509229 0.939579932446986 L 8.239805844922289 0.5803947898456356 L 8.465464912207151 0.5810624202222185 L 8.612009779866996 0.4341837373740822 L 8.178717665464994 0.43318229180920853 L 7.820533968428518 0.7923674344105591 Z M 6.846127433806451 0.9696232993931959 C 6.789378851796944 0.9696232993931959 6.742310910247883 0.923222988220717 6.742310910247883 0.8658067758346264 C 6.742310910247883 0.8083905634485367 6.789378851796944 0.7623240674643492 6.846127433806451 0.7623240674643492 C 6.903543646192541 0.7623240674643492 6.94994395736502 0.8083905634485378 6.94994395736502 0.8658067758346264 C 6.94994395736502 0.9232229882207161 6.903543646192541 0.9696232993931959 6.846127433806451 0.9696232993931959 Z" fill="#4e888f" transform="matrix(1,0,0,1,0,0)" fill-rule="nonzero"></path></g><g clip-path="url(#SvgjsClipPath100071217def-80c1-4035-880c-e3f34131b8bf)"><path d=" M 7.746093181439576 0.17948274870788228 C 7.7143807385519105 0.07700148590247857 7.620244855453787 0.0018930685369538125 7.507749136999647 0.0018930685369538125 C 7.3692158338587905 0.0018930685369538125 7.25672011540465 0.11472260217938546 7.25672011540465 0.25292209013195066 C 7.25672011540465 0.3921230236493878 7.3692158338587905 0.5046187421035286 7.507749136999647 0.5046187421035286 C 7.620244855453787 0.5046187421035286 7.7143807385519105 0.42951032473800477 7.746093181439576 0.32636143155601793 L 8.72016590087335 0.32636143155601793 L 8.84300989016452 0.20351744226484958 L 8.818975196607552 0.17948274870788183 C 8.818975196607552 0.17948274870788228 7.746093181439576 0.17948274870788228 7.746093181439576 0.17948274870788228 Z M 7.507749136999647 0.35740624406710153 C 7.450332924613557 0.35740624406710153 7.403932613441077 0.31033830251803973 7.403932613441077 0.25292209013195066 C 7.403932613441077 0.19617350812244316 7.450332924613557 0.14910556657338137 7.507749136999647 0.14910556657338137 C 7.565165349385736 0.14910556657338137 7.611565660558215 0.19617350812244316 7.611565660558215 0.25292209013195066 C 7.611565660558215 0.31033830251803973 7.565165349385736 0.35740624406710153 7.507749136999647 0.35740624406710153 Z" fill="#4e888f" transform="matrix(1,0,0,1,0,0)" fill-rule="nonzero"></path></g><g clip-path="url(#SvgjsClipPath100071217def-80c1-4035-880c-e3f34131b8bf)"><path d=" M 9.062660284060142 -0.25781514795361404 L 6.151458026972426 -0.25781514795361404 C 6.11974558408476 -0.36096404113560043 6.025609700986637 -0.4357386433128333 5.913113982532496 -0.4357386433128333 C 5.774580679391641 -0.4357386433128333 5.6620849609375 -0.32324292485869255 5.6620849609375 -0.18404199134125432 C 5.6620849609375 -0.045842503388690226 5.774580679391641 0.06665321506545063 5.913113982532496 0.06665321506545063 C 6.025609700986637 0.06665321506545063 6.11974558408476 -0.008455202300073239 6.151458026972426 -0.11060264991718638 L 7.078796620045431 -0.11060264991718638 L 6.753994441838075 0.21386571310187774 L 6.610787726061142 0.21386571310187774 C 6.579075283173476 0.11171826548476504 6.484939400075353 0.03660984811924073 6.372109866432921 0.03660984811924073 C 6.233910378480356 0.03660984811924073 6.121414660026216 0.14910556657338137 6.121414660026216 0.2876388697142369 C 6.121414660026216 0.425838357666801 6.233910378480356 0.5383340761209419 6.372109866432921 0.5383340761209419 C 6.484939400075353 0.5383340761209419 6.579075283173476 0.46322565875541755 6.610787726061142 0.36107821113830485 L 6.815082621295368 0.36107821113830485 L 7.287097297539151 -0.11060264991718693 L 9.06266028406014 -0.11060264991718693 C 9.070004218202548 -0.08756940192509266 9.080018673851285 -0.06620522987445487 9.093037466194641 -0.04651013376527291 L 9.201527402389289 -0.15500006995991855 C 9.198523065694667 -0.1643468952320729 9.197187804941501 -0.17402753569251816 9.197187804941501 -0.18404199134125476 C 9.197187804941501 -0.2414582037273445 9.24358811611398 -0.28885996046469764 9.30100432850007 -0.28885996046469764 C 9.311352599337098 -0.28885996046469764 9.321367054985835 -0.2871908845232417 9.33104769544628 -0.2845203630169115 L 9.439871446829217 -0.39367792958813996 C 9.400147439422563 -0.42038314465143745 9.352411867496919 -0.43573864331283385 9.30100432850007 -0.43573864331283385 C 9.18850861004593 -0.4357386433128333 9.094372726947807 -0.3609640411355999 9.062660284060142 -0.25781514795361404 Z M 5.913113982532496 -0.08055928297097703 C 5.855697770146407 -0.08055928297097703 5.809297458973927 -0.12762722452003872 5.809297458973927 -0.18404199134125432 C 5.809297458973927 -0.24145820372734395 5.855697770146407 -0.2888599604646971 5.913113982532496 -0.2888599604646971 C 5.970530194918586 -0.2888599604646971 6.016930506091065 -0.24145820372734395 6.016930506091065 -0.18404199134125432 C 6.016930506091065 -0.12762722452003872 5.970530194918586 -0.08055928297097703 5.913113982532496 -0.08055928297097703 Z M 6.4665795647193365 0.33103484419209583 C 6.449554990116484 0.366419254150965 6.414170580157616 0.3911215780845152 6.372109866432922 0.3911215780845152 C 6.314693654046832 0.3911215780845152 6.268293342874353 0.3450550821003271 6.268293342874353 0.287638869714238 C 6.268293342874353 0.23022265732814828 6.314693654046832 0.18382234615566873 6.372109866432922 0.18382234615566873 C 6.414170580157616 0.18382234615566873 6.449554990116484 0.2088584852775104 6.4665795647193365 0.2442428952363791 L 6.4665795647193365 0.33103484419209583 Z" fill="#4e888f" transform="matrix(1,0,0,1,0,0)" fill-rule="nonzero"></path></g><g clip-path="url(#SvgjsClipPath100071217def-80c1-4035-880c-e3f34131b8bf)"><path d=" M 7.350188368126191 -1.0703213162544387 C 7.047751807534347 -1.0703213162544387 6.794052264433022 -0.8560119653714767 6.731295009034272 -0.5719352401356501 L 7.122192594523289 -0.5719352401356501 C 7.1685929056957685 -0.6500479941957953 7.2530481483334475 -0.7021231635692253 7.350188368126192 -0.7021231635692253 L 9.748650495998596 -0.7021231635692253 L 10.11684864868381 -1.0703213162544394 L 7.350188368126191 -1.0703213162544394 Z" fill="#4e888f" transform="matrix(1,0,0,1,0,0)" fill-rule="nonzero"></path></g></g><g><path d=" M 0.5145 1.065 Q 0.4245 1.065 0.3435 1.047 Q 0.2625 1.029 0.20025 0.98925 Q 0.138 0.9494999999999999 0.10275000000000001 0.8887499999999999 Q 0.0675 0.828 0.0675 0.7409999999999999 Q 0.0675 0.7334999999999999 0.0675 0.72525 Q 0.0675 0.7169999999999999 0.069 0.7124999999999999 L 0.291 0.7124999999999999 Q 0.2895 0.7169999999999999 0.2895 0.7244999999999999 Q 0.2895 0.732 0.2895 0.738 Q 0.2895 0.7859999999999999 0.31575000000000003 0.819 Q 0.342 0.8519999999999999 0.393 0.8684999999999999 Q 0.444 0.8849999999999999 0.5115000000000001 0.8849999999999999 Q 0.555 0.8849999999999999 0.58875 0.8797499999999999 Q 0.6225 0.8744999999999999 0.64875 0.8647499999999999 Q 0.675 0.855 0.69225 0.8414999999999999 Q 0.7095 0.828 0.71775 0.8099999999999999 Q 0.726 0.7919999999999999 0.726 0.7694999999999999 Q 0.726 0.7289999999999999 0.69975 0.7034999999999999 Q 0.6735 0.6779999999999999 0.62775 0.6599999999999999 Q 0.582 0.6419999999999999 0.525 0.627 Q 0.468 0.6119999999999999 0.40800000000000003 0.59625 Q 0.34800000000000003 0.5804999999999999 0.291 0.5572499999999999 Q 0.234 0.5339999999999999 0.189 0.5009999999999999 Q 0.14400000000000002 0.46799999999999997 0.117 0.4169999999999999 Q 0.09 0.3659999999999999 0.09 0.29399999999999993 Q 0.09 0.21749999999999992 0.12225 0.16199999999999992 Q 0.1545 0.10649999999999993 0.213 0.0704999999999999 Q 0.2715 0.034499999999999975 0.34800000000000003 0.017249999999999988 Q 0.4245 0 0.5145 0 Q 0.5985 0 0.6735 0.017249999999999988 Q 0.7485 0.034499999999999975 0.8055 0.07199999999999995 Q 0.8625 0.10949999999999993 0.89475 0.16649999999999987 Q 0.927 0.22349999999999992 0.927 0.3014999999999999 L 0.927 0.3194999999999999 L 0.7095 0.3194999999999999 L 0.7095 0.3074999999999999 Q 0.7095 0.2669999999999999 0.6855 0.23849999999999993 Q 0.6615 0.20999999999999996 0.618 0.1934999999999999 Q 0.5745 0.17699999999999994 0.516 0.17699999999999994 Q 0.453 0.17699999999999994 0.40875 0.18899999999999995 Q 0.3645 0.20099999999999996 0.34125 0.22424999999999995 Q 0.318 0.24749999999999994 0.318 0.2789999999999999 Q 0.318 0.31499999999999995 0.34425 0.33824999999999994 Q 0.3705 0.36149999999999993 0.41625 0.3787499999999999 Q 0.462 0.3959999999999999 0.519 0.40949999999999986 Q 0.5760000000000001 0.42299999999999993 0.636 0.4394999999999999 Q 0.6960000000000001 0.45599999999999996 0.753 0.4784999999999999 Q 0.81 0.5009999999999999 0.855 0.53475 Q 0.9 0.5684999999999999 0.927 0.6179999999999999 Q 0.9540000000000001 0.6675 0.9540000000000001 0.7364999999999999 Q 0.9540000000000001 0.855 0.897 0.9269999999999999 Q 0.84 0.9989999999999999 0.741 1.032 Q 0.642 1.065 0.5145 1.065 M 1.386024169921875 1.047 L 1.386024169921875 0.2054999999999999 L 1.056024169921875 0.2054999999999999 L 1.056024169921875 0.018000000000000016 L 1.942524169921875 0.018000000000000016 L 1.942524169921875 0.2054999999999999 L 1.611024169921875 0.2054999999999999 L 1.611024169921875 1.047 L 1.386024169921875 1.047 M 2.535009521484375 1.065 Q 2.371509521484375 1.065 2.253009521484375 1.0065 Q 2.1345095214843752 0.948 2.071509521484375 0.8294999999999999 Q 2.008509521484375 0.7109999999999999 2.008509521484375 0.5325 Q 2.008509521484375 0.35099999999999987 2.071509521484375 0.23324999999999996 Q 2.1345095214843752 0.11549999999999994 2.253009521484375 0.05774999999999986 Q 2.371509521484375 0 2.535009521484375 0 Q 2.701509521484375 0 2.819259521484375 0.05774999999999986 Q 2.937009521484375 0.11549999999999994 3.000009521484375 0.23324999999999996 Q 3.063009521484375 0.35099999999999987 3.063009521484375 0.5325 Q 3.063009521484375 0.7109999999999999 3.000009521484375 0.8294999999999999 Q 2.937009521484375 0.948 2.819259521484375 1.0065 Q 2.701509521484375 1.065 2.535009521484375 1.065 M 2.535009521484375 0.8819999999999999 Q 2.608509521484375 0.8819999999999999 2.664009521484375 0.861 Q 2.719509521484375 0.8399999999999999 2.757009521484375 0.7979999999999999 Q 2.794509521484375 0.756 2.814009521484375 0.6952499999999999 Q 2.833509521484375 0.6344999999999998 2.833509521484375 0.5565 L 2.833509521484375 0.5099999999999999 Q 2.833509521484375 0.4304999999999999 2.814009521484375 0.3689999999999999 Q 2.794509521484375 0.3074999999999999 2.757009521484375 0.2662499999999999 Q 2.719509521484375 0.22499999999999987 2.664009521484375 0.20399999999999996 Q 2.608509521484375 0.18299999999999994 2.535009521484375 0.18299999999999994 Q 2.4630095214843752 0.18299999999999994 2.407509521484375 0.20399999999999996 Q 2.352009521484375 0.22499999999999987 2.314509521484375 0.2662499999999999 Q 2.277009521484375 0.3074999999999999 2.258259521484375 0.3689999999999999 Q 2.2395095214843748 0.4304999999999999 2.2395095214843748 0.5099999999999999 L 2.2395095214843748 0.5565 Q 2.2395095214843748 0.6344999999999998 2.258259521484375 0.6952499999999999 Q 2.277009521484375 0.756 2.314509521484375 0.7979999999999999 Q 2.352009521484375 0.8399999999999999 2.407509521484375 0.861 Q 2.4630095214843752 0.8819999999999999 2.535009521484375 0.8819999999999999 M 3.24455419921875 1.047 L 3.24455419921875 0.018000000000000016 L 3.46805419921875 0.018000000000000016 L 3.46805419921875 0.8564999999999999 L 3.98705419921875 0.8564999999999999 L 3.98705419921875 1.047 L 3.24455419921875 1.047 M 4.131059326171875 1.047 L 4.131059326171875 0.018000000000000016 L 4.354559326171875 0.018000000000000016 L 4.354559326171875 1.047 L 4.131059326171875 1.047 M 4.8225732421875 0.732 L 4.8225732421875 0.5489999999999999 L 5.2020732421875 0.5489999999999999 L 5.2020732421875 0.732 L 4.8225732421875 0.732" fill="#404040" fill-rule="nonzero"></path></g><g><path d=" M 1.9436920166015619 1.9217624999999998 Q 1.895317016601562 1.8842624999999997 1.895317016601562 1.8047624999999998 L 1.896067016601562 1.7897624999999997 L 1.964317016601562 1.7897624999999997 L 1.963567016601562 1.8055124999999999 Q 1.963567016601562 1.8512624999999998 1.991692016601562 1.8748874999999998 Q 2.019817016601562 1.8985124999999998 2.065567016601562 1.8985124999999998 Q 2.117317016601562 1.8985124999999998 2.145442016601562 1.8763874999999999 Q 2.173567016601562 1.8542624999999997 2.173567016601562 1.8130124999999997 Q 2.173567016601562 1.7852624999999998 2.158192016601562 1.7676374999999998 Q 2.142817016601562 1.7500124999999997 2.119942016601562 1.7395124999999998 Q 2.097067016601562 1.7290124999999998 2.057317016601562 1.7162624999999998 Q 2.008567016601562 1.6997624999999998 1.978567016601562 1.6847624999999997 Q 1.948567016601562 1.6697624999999998 1.927192016601562 1.6408874999999998 Q 1.905817016601562 1.6120124999999998 1.905817016601562 1.5647624999999998 Q 1.905817016601562 1.4972624999999997 1.951567016601562 1.4620124999999997 Q 1.997317016601562 1.4267624999999997 2.069317016601562 1.4267624999999997 Q 2.141317016601562 1.4267624999999997 2.185942016601562 1.4623874999999997 Q 2.230567016601562 1.4980124999999997 2.230567016601562 1.5715124999999999 L 2.230567016601562 1.5805124999999998 L 2.162317016601562 1.5805124999999998 L 2.162317016601562 1.5692624999999998 Q 2.162317016601562 1.5310124999999997 2.136442016601562 1.5092624999999997 Q 2.110567016601562 1.4875124999999998 2.070817016601562 1.4875124999999998 Q 2.028067016601562 1.4875124999999998 2.001817016601562 1.5058874999999998 Q 1.975567016601562 1.5242624999999999 1.975567016601562 1.5595124999999999 Q 1.975567016601562 1.5857624999999997 1.9905670166015619 1.6026374999999997 Q 2.005567016601562 1.6195125 2.028067016601562 1.6296374999999999 Q 2.050567016601562 1.6397624999999998 2.089567016601562 1.6525124999999998 Q 2.139067016601562 1.6690124999999998 2.169442016601562 1.6836374999999997 Q 2.199817016601562 1.6982624999999998 2.221192016601562 1.7271374999999998 Q 2.242567016601562 1.7560124999999998 2.242567016601562 1.8017624999999997 Q 2.242567016601562 1.8842624999999997 2.195692016601562 1.9217624999999998 Q 2.148817016601562 1.9592624999999997 2.068567016601562 1.9592624999999997 Q 1.992067016601562 1.9592624999999997 1.9436920166015619 1.9217624999999998 M 2.336689819335937 1.9318874999999998 Q 2.320189819335937 1.9060124999999999 2.320189819335937 1.8670124999999997 L 2.320189819335937 1.6105124999999998 L 2.286439819335937 1.6105124999999998 L 2.286439819335937 1.5557624999999997 L 2.320189819335937 1.5557624999999997 L 2.333689819335937 1.4462624999999998 L 2.381689819335937 1.4462624999999998 L 2.381689819335937 1.5557624999999997 L 2.434939819335937 1.5557624999999997 L 2.434939819335937 1.6105124999999998 L 2.381689819335937 1.6105124999999998 L 2.381689819335937 1.8685124999999998 Q 2.381689819335937 1.9045124999999998 2.416939819335937 1.9045124999999998 L 2.434939819335937 1.9045124999999998 L 2.434939819335937 1.9472625 Q 2.426689819335937 1.9517624999999998 2.414314819335937 1.9547624999999997 Q 2.401939819335937 1.9577624999999999 2.390689819335937 1.9577624999999999 Q 2.353189819335937 1.9577624999999999 2.336689819335937 1.9318874999999998 M 2.513710327148437 1.9086374999999998 Q 2.478085327148437 1.8580124999999998 2.478085327148437 1.7530124999999999 Q 2.478085327148437 1.6480124999999997 2.513710327148437 1.5973874999999997 Q 2.549335327148437 1.5467624999999998 2.619085327148437 1.5467624999999998 Q 2.688835327148437 1.5467624999999998 2.724460327148437 1.5973874999999997 Q 2.760085327148437 1.6480124999999997 2.760085327148437 1.7530124999999999 Q 2.760085327148437 1.8580124999999998 2.724460327148437 1.9086374999999998 Q 2.688835327148437 1.9592624999999997 2.619085327148437 1.9592624999999997 Q 2.549335327148437 1.9592624999999997 2.513710327148437 1.9086374999999998 M 2.695585327148437 1.7672624999999997 L 2.695585327148437 1.7387624999999998 Q 2.695585327148437 1.6015124999999997 2.619085327148437 1.6015124999999997 Q 2.542585327148437 1.6015124999999997 2.542585327148437 1.7387624999999998 L 2.542585327148437 1.7672624999999997 Q 2.542585327148437 1.9045124999999998 2.619085327148437 1.9045124999999998 Q 2.695585327148437 1.9045124999999998 2.695585327148437 1.7672624999999997 M 2.8287055664062497 1.4080125 L 2.89020556640625 1.4080125 L 2.89020556640625 1.9502624999999998 L 2.8287055664062497 1.9502624999999998 L 2.8287055664062497 1.4080125 M 2.9974606933593746 1.9101374999999998 Q 2.9603356933593745 1.8610124999999997 2.9603356933593745 1.7530124999999999 Q 2.9603356933593745 1.6472624999999999 2.9970856933593746 1.5970124999999997 Q 3.0338356933593746 1.5467624999999998 3.108835693359375 1.5467624999999998 Q 3.1748356933593747 1.5467624999999998 3.2067106933593745 1.5906374999999997 Q 3.238585693359375 1.6345124999999998 3.238585693359375 1.7320124999999997 L 3.238585693359375 1.7710124999999999 L 3.0248356933593747 1.7710124999999999 Q 3.0255856933593748 1.8400124999999998 3.0462106933593747 1.8722624999999997 Q 3.0668356933593746 1.9045124999999998 3.1110856933593745 1.9045124999999998 Q 3.1410856933593747 1.9045124999999998 3.1594606933593745 1.8805124999999998 Q 3.1778356933593748 1.8565124999999998 3.1778356933593748 1.8160124999999998 L 3.238585693359375 1.8160124999999998 Q 3.238585693359375 1.8820124999999999 3.202960693359375 1.9206374999999998 Q 3.167335693359375 1.9592624999999997 3.109585693359375 1.9592624999999997 Q 3.0345856933593747 1.9592624999999997 2.9974606933593746 1.9101374999999998 M 3.1740856933593746 1.7162624999999998 Q 3.1740856933593746 1.6600124999999997 3.1575856933593744 1.6307625 Q 3.1410856933593747 1.6015124999999997 3.108835693359375 1.6015124999999997 Q 3.0690856933593746 1.6015124999999997 3.049210693359375 1.6296374999999999 Q 3.0293356933593745 1.6577624999999998 3.0255856933593748 1.7162624999999998 L 3.1740856933593746 1.7162624999999998 M 3.328205932617187 1.9258874999999998 Q 3.2967059326171873 1.8925124999999998 3.2967059326171873 1.8437624999999997 Q 3.2967059326171873 1.8347624999999999 3.2970809326171873 1.8313874999999997 Q 3.2974559326171873 1.8280124999999998 3.2974559326171873 1.8272624999999998 L 3.361955932617187 1.8272624999999998 L 3.361955932617187 1.8347624999999999 Q 3.361955932617187 1.8700124999999999 3.3799559326171873 1.8876374999999999 Q 3.397955932617187 1.9052624999999999 3.4264559326171873 1.9052624999999999 Q 3.4519559326171874 1.9052624999999999 3.468830932617187 1.8898874999999997 Q 3.4857059326171873 1.8745124999999998 3.4857059326171873 1.8467624999999999 Q 3.4857059326171873 1.8257624999999997 3.4752059326171874 1.8122624999999997 Q 3.4647059326171874 1.7987624999999998 3.4497059326171873 1.7908874999999997 Q 3.434705932617187 1.7830125 3.407705932617187 1.7732624999999997 Q 3.374705932617187 1.7620124999999998 3.354455932617187 1.7507624999999998 Q 3.3342059326171873 1.7395124999999998 3.3199559326171872 1.7173874999999998 Q 3.305705932617187 1.6952624999999997 3.305705932617187 1.6592624999999999 Q 3.305705932617187 1.6075125 3.339080932617187 1.5771374999999999 Q 3.372455932617187 1.5467624999999998 3.4287059326171874 1.5467624999999998 Q 3.481955932617187 1.5467624999999998 3.5119559326171874 1.5778874999999997 Q 3.541955932617187 1.6090124999999997 3.541955932617187 1.6547625 L 3.541205932617187 1.6690124999999998 L 3.477455932617187 1.6690124999999998 L 3.477455932617187 1.6622624999999998 Q 3.477455932617187 1.6360124999999996 3.4647059326171874 1.6183874999999999 Q 3.4519559326171874 1.6007624999999996 3.422705932617187 1.6007624999999996 Q 3.3934559326171874 1.6007624999999996 3.3814559326171874 1.6172624999999998 Q 3.3694559326171873 1.6337624999999998 3.3694559326171873 1.6547625 Q 3.3694559326171873 1.6802624999999998 3.387080932617187 1.6926374999999998 Q 3.4047059326171873 1.7050124999999998 3.4414559326171874 1.7170124999999998 Q 3.4752059326171874 1.7290124999999998 3.4969559326171873 1.7406374999999998 Q 3.5187059326171872 1.7522624999999998 3.5340809326171874 1.7755124999999998 Q 3.549455932617187 1.7987624999999998 3.549455932617187 1.8377624999999997 Q 3.549455932617187 1.8985124999999998 3.515330932617187 1.9288874999999999 Q 3.481205932617187 1.9592624999999997 3.423455932617187 1.9592624999999997 Q 3.3597059326171874 1.9592624999999997 3.328205932617187 1.9258874999999998 M 3.6255607910156247 1.4080125 L 3.687060791015625 1.4080125 L 3.687060791015625 1.7387624999999998 L 3.8145607910156247 1.5557624999999997 L 3.8828107910156247 1.5557624999999997 L 3.7665607910156247 1.7177624999999999 L 3.888810791015625 1.9502624999999998 L 3.819060791015625 1.9502624999999998 L 3.7290607910156246 1.7702624999999999 L 3.687060791015625 1.8160124999999998 L 3.687060791015625 1.9502624999999998 L 3.6255607910156247 1.9502624999999998 L 3.6255607910156247 1.4080125 M 3.9266656494140624 1.4080125 L 3.9881656494140625 1.4080125 L 3.9881656494140625 1.4815124999999998 L 3.9266656494140624 1.4815124999999998 L 3.9266656494140624 1.4080125 M 3.9266656494140624 1.5557624999999997 L 3.9881656494140625 1.5557624999999997 L 3.9881656494140625 1.9502624999999998 L 3.9266656494140624 1.9502624999999998 L 3.9266656494140624 1.5557624999999997 M 4.251441284179688 1.4357624999999998 L 4.317441284179687 1.4357624999999998 L 4.317441284179687 1.9502624999999998 L 4.251441284179688 1.9502624999999998 L 4.251441284179688 1.4357624999999998 M 4.406336791992187 2.0601374999999997 Q 4.380836791992188 2.0335124999999996 4.380836791992188 1.9930124999999999 Q 4.380836791992188 1.9637624999999999 4.394711791992187 1.9408874999999999 Q 4.408586791992187 1.9180124999999997 4.431836791992187 1.9090124999999998 Q 4.416836791992187 1.8992624999999999 4.408211791992187 1.8835124999999997 Q 4.399586791992188 1.8677624999999998 4.399586791992188 1.8497624999999998 Q 4.399586791992188 1.8265124999999998 4.414586791992187 1.8085124999999997 Q 4.429586791992188 1.7905124999999997 4.455086791992187 1.7815124999999998 Q 4.409336791992187 1.7440124999999997 4.409336791992187 1.6795124999999997 Q 4.409336791992187 1.6172624999999998 4.4438367919921875 1.5820124999999998 Q 4.478336791992187 1.5467624999999998 4.5383367919921875 1.5467624999999998 Q 4.569086791992188 1.5467624999999998 4.595336791992187 1.5610125 Q 4.619336791992187 1.5482624999999999 4.6302117919921875 1.5310124999999997 Q 4.641086791992187 1.5137625 4.644086791992187 1.4920124999999997 L 4.698086791992187 1.4920124999999997 Q 4.698086791992187 1.5280124999999998 4.680461791992188 1.5535124999999999 Q 4.662836791992188 1.5790124999999997 4.6320867919921875 1.5865124999999998 Q 4.667336791992187 1.6232624999999998 4.667336791992187 1.6795124999999997 Q 4.667336791992187 1.7402624999999998 4.633211791992188 1.7758874999999998 Q 4.599086791992187 1.8115124999999999 4.541336791992188 1.8122624999999997 L 4.500086791992187 1.8122624999999997 Q 4.485086791992187 1.8122624999999997 4.474586791992188 1.8223874999999998 Q 4.464086791992187 1.8325124999999998 4.464086791992187 1.8475124999999997 Q 4.464086791992187 1.8617624999999998 4.474586791992188 1.8722624999999997 Q 4.485086791992187 1.8827624999999997 4.500086791992187 1.8827624999999997 L 4.612586791992188 1.8827624999999997 Q 4.6545867919921875 1.8827624999999997 4.680086791992188 1.9093874999999998 Q 4.705586791992188 1.9360124999999997 4.705586791992188 1.9750124999999998 Q 4.705586791992188 2.0237624999999997 4.675211791992187 2.0552625 Q 4.644836791992187 2.0867625 4.590086791992188 2.0867625 L 4.478336791992187 2.0867625 Q 4.431836791992187 2.0867625 4.406336791992187 2.0601374999999997 M 4.587461791992188 1.7395124999999998 Q 4.605086791992187 1.7177624999999999 4.605086791992187 1.6795124999999997 Q 4.605086791992187 1.6397624999999998 4.587461791992188 1.6187624999999999 Q 4.569836791992188 1.5977624999999998 4.5375867919921875 1.5977624999999998 Q 4.505336791992187 1.5977624999999998 4.488086791992187 1.6195125 Q 4.470836791992188 1.6412624999999998 4.470836791992188 1.6795124999999997 Q 4.470836791992188 1.7192624999999997 4.488086791992187 1.7402624999999998 Q 4.505336791992187 1.7612624999999997 4.5375867919921875 1.7612624999999997 Q 4.569836791992188 1.7612624999999997 4.587461791992188 1.7395124999999998 M 4.596836791992187 2.0335124999999996 Q 4.616336791992188 2.0335124999999996 4.6298367919921875 2.0200125 Q 4.643336791992187 2.0065125 4.643336791992187 1.9870124999999998 Q 4.643336791992187 1.9667624999999997 4.6313367919921875 1.9540124999999997 Q 4.619336791992187 1.9412625 4.596836791992187 1.9412625 L 4.488086791992187 1.9412625 Q 4.465586791992187 1.9412625 4.453961791992187 1.9540124999999997 Q 4.4423367919921875 1.9667624999999997 4.4423367919921875 1.9870124999999998 Q 4.4423367919921875 2.0072625 4.454336791992187 2.0203875 Q 4.4663367919921875 2.0335124999999996 4.488086791992187 2.0335124999999996 L 4.596836791992187 2.0335124999999996 M 4.77983203125 1.9086374999999998 Q 4.74420703125 1.8580124999999998 4.74420703125 1.7530124999999999 Q 4.74420703125 1.6480124999999997 4.77983203125 1.5973874999999997 Q 4.81545703125 1.5467624999999998 4.88520703125 1.5467624999999998 Q 4.95495703125 1.5467624999999998 4.99058203125 1.5973874999999997 Q 5.02620703125 1.6480124999999997 5.02620703125 1.7530124999999999 Q 5.02620703125 1.8580124999999998 4.99058203125 1.9086374999999998 Q 4.95495703125 1.9592624999999997 4.88520703125 1.9592624999999997 Q 4.81545703125 1.9592624999999997 4.77983203125 1.9086374999999998 M 4.96170703125 1.7672624999999997 L 4.96170703125 1.7387624999999998 Q 4.96170703125 1.6015124999999997 4.88520703125 1.6015124999999997 Q 4.80870703125 1.6015124999999997 4.80870703125 1.7387624999999998 L 4.80870703125 1.7672624999999997 Q 4.80870703125 1.9045124999999998 4.88520703125 1.9045124999999998 Q 4.96170703125 1.9045124999999998 4.96170703125 1.7672624999999997 M 5.102327270507812 1.5557624999999997 L 5.148827270507812 1.5557624999999997 L 5.157077270507813 1.6075125 L 5.161577270507813 1.6075125 Q 5.169827270507812 1.5812624999999998 5.186327270507812 1.5640124999999998 Q 5.202827270507813 1.5467624999999998 5.228327270507813 1.5467624999999998 Q 5.238827270507812 1.5467624999999998 5.247077270507813 1.5493875 Q 5.255327270507813 1.5520124999999998 5.257577270507812 1.5527624999999998 L 5.257577270507812 1.6165124999999998 L 5.237327270507812 1.6165124999999998 Q 5.205077270507813 1.6165124999999998 5.184452270507813 1.6386374999999997 Q 5.163827270507812 1.6607624999999997 5.163827270507812 1.7095124999999998 L 5.163827270507812 1.9502624999999998 L 5.102327270507812 1.9502624999999998 L 5.102327270507812 1.5557624999999997" fill="#4e888f" fill-rule="nonzero"></path></g></g><defs><clipPath id="SvgjsClipPath1001"><path d=" M 5.6620849609375 -1.0703213162544398 h 5.685540286976032 v 4.09090513250888 h -5.685540286976032 Z"></path></clipPath><clipPath id="SvgjsClipPath100071217def-80c1-4035-880c-e3f34131b8bf"><path d=" M 5.6620849609375 -1.0703213162544398 L 11.347625247913532 -1.0703213162544398 L 11.347625247913532 3.02058381625444 L 5.6620849609375 3.02058381625444 Z"></path></clipPath></defs></svg>