<svg width="46" height="45" viewBox="0 0 46 45" fill="none" xmlns="http://www.w3.org/2000/svg">
<g id="Frame" clip-path="url(#clip0_490_4101)">
<g id="Group">
<g id="Group_2">
<path id="Vector" d="M6.29298 7.34961V37.7246C2.61798 33.6746 0.367981 28.3496 0.367981 22.4996C0.367981 16.6496 2.61798 11.3246 6.29298 7.34961Z" fill="white"/>
<path id="Vector_2" d="M8.69298 10.6504L21.668 36.6754H8.69298V10.6504Z" fill="white"/>
<path id="Vector_3" d="M22.868 33.7502L10.118 8.3252H35.618L22.868 33.7502Z" fill="white"/>
<path id="Vector_4" d="M22.868 0C28.718 0 34.043 2.25 38.018 5.925H7.71799C11.693 2.25 17.018 0 22.868 0Z" fill="white"/>
<path id="Vector_5" d="M37.043 36.6754H24.068L37.043 10.6504V36.6754Z" fill="white"/>
<path id="Vector_6" d="M38.018 39.0752C34.043 42.7502 28.718 45.0002 22.868 45.0002C17.018 45.0002 11.693 42.7502 7.71799 39.0752H38.018Z" fill="white"/>
<path id="Vector_7" d="M39.443 37.6496V7.34961C43.118 11.3246 45.368 16.6496 45.368 22.4996C45.368 28.3496 43.118 33.6746 39.443 37.6496Z" fill="white"/>
</g>
<g id="Group_3">
<path id="Vector_8" d="M8.69298 10.6504L21.668 36.6754H8.69298V10.6504Z" fill="white"/>
<path id="Vector_9" d="M22.868 33.7502L10.118 8.3252H35.618L22.868 33.7502Z" fill="white"/>
<path id="Vector_10" d="M24.068 36.6754L37.043 10.6504V36.6754H24.068Z" fill="white"/>
</g>
<g id="Group_4">
<path id="Vector_11" d="M10.118 8.3252H35.618L22.868 33.7502L10.118 8.3252Z" fill="white"/>
</g>
</g>
</g>
<defs>
<clipPath id="clip0_490_4101">
<rect width="45" height="45" fill="white" transform="translate(0.367981)"/>
</clipPath>
</defs>
</svg>
