<svg width="49" height="45" viewBox="0 0 49 45" fill="none" xmlns="http://www.w3.org/2000/svg">
<g id="scrum" clip-path="url(#clip0_389_6083)">
<g id="Group">
<path id="Vector" fill-rule="evenodd" clip-rule="evenodd" d="M47.8027 11.8229L43.5423 17.7812L39.2819 11.8229H41.6048C41.4277 7.39583 37.7715 3.85417 33.3027 3.85417C29.5319 3.85417 26.334 6.38541 25.3236 9.83333C24.0944 9.4375 22.8236 9.1875 21.5319 9.07291C21.6778 8.52083 21.8653 7.96875 22.0944 7.4375C22.709 5.98958 23.584 4.6875 24.6986 3.57292C25.8132 2.45833 27.1153 1.57292 28.5632 0.96875C30.0632 0.322917 31.6569 0 33.3027 0C34.9486 0 36.5423 0.322917 38.0423 0.958333C39.4902 1.57292 40.7923 2.44792 41.9069 3.5625C43.0215 4.67708 43.8965 5.97916 44.5111 7.42708C45.1048 8.82291 45.4277 10.3021 45.459 11.8229H47.8027Z" fill="white"/>
</g>
<g id="Group_2">
<path id="Vector_2" fill-rule="evenodd" clip-rule="evenodd" d="M41.8444 44.9997V42.4372H27.1569C27.2611 42.3851 27.3653 42.3434 27.4694 42.2913C29.0632 41.5309 30.5319 40.5413 31.8444 39.333C32.0215 39.1663 32.1882 39.0101 32.3444 38.8538C32.5215 38.6768 32.709 38.4893 32.8861 38.2913C33.0944 38.0622 33.3028 37.8226 33.4903 37.583H41.8444V35.0205L48.8236 40.0101L41.8444 44.9997Z" fill="white"/>
</g>
<g id="Group_3">
<path id="Vector_3" fill-rule="evenodd" clip-rule="evenodd" d="M36.4278 26.4899C36.4278 28.7087 35.9903 30.8649 35.1361 32.8962C34.4069 34.6253 33.3861 36.2087 32.1153 37.5941C31.9486 37.7712 31.7819 37.9482 31.6153 38.1253C31.459 38.2816 31.3028 38.4274 31.1465 38.5837C29.9173 39.7191 28.5423 40.6462 27.0423 41.3649C26.834 41.4691 26.6153 41.5628 26.3965 41.6566C26.3861 41.6566 26.3861 41.667 26.3757 41.667C25.1257 42.1982 23.7819 42.4587 22.4173 42.4587H0.750671V37.6149H20.8653C26.9486 37.6149 31.9382 32.7503 32.0215 26.667C32.0215 26.6149 32.0215 26.5628 32.0215 26.5107C32.0215 19.8649 26.6257 14.4691 19.9798 14.4691C13.334 14.4482 7.93817 19.8337 7.93817 26.4899H10.7298L5.74026 33.4691L0.750671 26.4899H3.54234C3.54234 24.2712 3.97984 22.1149 4.83401 20.0837C5.66734 18.1253 6.84442 16.3649 8.35484 14.8545C9.86526 13.3441 11.6257 12.1566 13.584 11.3337C15.6153 10.4795 17.7715 10.042 19.9903 10.042C20.4382 10.042 20.8757 10.0628 21.3132 10.0941C22.6048 10.1982 23.8653 10.4482 25.0944 10.8545C25.5319 11.0003 25.959 11.1566 26.3861 11.3441C28.3444 12.1774 30.1048 13.3545 31.6153 14.8649C33.1257 16.3753 34.3132 18.1357 35.1361 20.0941C35.9903 22.1149 36.4278 24.2712 36.4278 26.4899Z" fill="white"/>
</g>
</g>
<defs>
<clipPath id="clip0_389_6083">
<rect width="48.0833" height="45" fill="white" transform="translate(0.750671)"/>
</clipPath>
</defs>
</svg>
